{
  "accessors": [
    {
      "bufferView": 2,
      "componentType": 5126,
      "count": 1656,
      "max": [
        0.57141494750976562,
        1.3969937562942505,
        0.605499267578125
      ],
      "min": [
        -0.54314899444580078,
        -0.63028937578201294,
        -0.42640542984008789
      ],
      "type": "VEC3"
    },
    {
      "bufferView": 2,
      "byteOffset": 19872,
      "componentType": 5126,
      "count": 1656,
      "max": [
        0.99983149766921997,
        0.92871630191802979,
        0.99552077054977417
      ],
      "min": [
        -0.99796229600906372,
        -0.99719250202178955,
        -0.99949222803115845
      ],
      "type": "VEC3"
    },
    {
      "bufferView": 1,
      "componentType": 5126,
      "count": 1656,
      "max": [
        0.68238562345504761,
        0.8228449821472168
      ],
      "min": [
        0.2758152186870575,
        0.083333313465118408
      ],
      "type": "VEC2"
    },
    {
      "bufferView": 2,
      "byteOffset": 39744,
      "componentType": 5126,
      "count": 1656,
      "max": [
        0.40182781219482422,
        0.3396294116973877,
        0.14140510559082031
      ],
      "min": [
        -0.070875167846679688,
        -0.00054883956909179688,
        -0.30166721343994141
      ],
      "type": "VEC3"
    },
    {
      "bufferView": 2,
      "byteOffset": 59616,
      "componentType": 5126,
      "count": 1656,
      "max": [
        1.9083635807037354,
        1.3300251960754395,
        1.9083476066589355
      ],
      "min": [
        -1.7514296770095825,
        -1.7952423095703125,
        -1.8588836193084717
      ],
      "type": "VEC3"
    },
    {
      "bufferView": 2,
      "byteOffset": 79488,
      "componentType": 5126,
      "count": 1656,
      "max": [
        0.09116363525390625,
        0.34707379341125488,
        0.12470054626464844
      ],
      "min": [
        -0.11047077178955078,
        -0.00066792964935302734,
        -0.30166721343994141
      ],
      "type": "VEC3"
    },
    {
      "bufferView": 2,
      "byteOffset": 99360,
      "componentType": 5126,
      "count": 1656,
      "max": [
        1.9224355220794678,
        1.3379890918731689,
        1.9083476066589355
      ],
      "min": [
        -1.8849358558654785,
        -1.7952423095703125,
        -1.8851380348205566
      ],
      "type": "VEC3"
    },
    {
      "bufferView": 0,
      "componentType": 5125,
      "count": 2484,
      "max": [
        1655
      ],
      "min": [
        0
      ],
      "type": "SCALAR"
    },
    {
      "bufferView": 3,
      "componentType": 5126,
      "count": 15,
      "max": [
        0.46666666865348816
      ],
      "min": [
        0
      ],
      "type": "SCALAR"
    },
    {
      "bufferView": 3,
      "byteOffset": 60,
      "componentType": 5126,
      "count": 30,
      "max": [
        1
      ],
      "min": [
        0
      ],
      "type": "SCALAR"
    }
  ],
  "animations": [
    {
      "channels": [
        {
          "sampler": 0,
          "target": {
            "node": 6,
            "path": "weights"
          }
        }
      ],
      "name": "Take 001",
      "samplers": [
        {
          "input": 8,
          "interpolation": "LINEAR",
          "output": 9
        }
      ]
    }
  ],
  "asset": {
    "extras": {
      "author": "Edgar_koh (https://sketchfab.com/edgar_koh)",
      "license": "CC-BY-4.0 (http://creativecommons.org/licenses/by/4.0/)",
      "source": "https://sketchfab.com/3d-models/fire-8161ae32b81446b397a0efcd36796753",
      "title": "fire"
    },
    "generator": "Sketchfab-9.38.0",
    "version": "2.0"
  },
  "bufferViews": [
    {
      "buffer": 0,
      "byteLength": 9936,
      "byteOffset": 0,
      "name": "floatBufferViews",
      "target": 34963
    },
    {
      "buffer": 0,
      "byteLength": 13248,
      "byteOffset": 9936,
      "byteStride": 8,
      "name": "floatBufferViews",
      "target": 34962
    },
    {
      "buffer": 0,
      "byteLength": 119232,
      "byteOffset": 23184,
      "byteStride": 12,
      "name": "floatBufferViews",
      "target": 34962
    },
    {
      "buffer": 0,
      "byteLength": 180,
      "byteOffset": 142416,
      "name": "floatBufferViews"
    }
  ],
  "buffers": [
    {
      "byteLength": 142596,
      "uri": "scene.bin"
    }
  ],
  "extensionsUsed": [
    "KHR_materials_unlit"
  ],
  "images": [
    {
      "uri": "textures/fire3lambert1_baseColor.png"
    }
  ],
  "materials": [
    {
      "doubleSided": true,
      "emissiveFactor": [
        0,
        0,
        0
      ],
      "extensions": {
        "KHR_materials_unlit": {}
      },
      "name": "fire3lambert1",
      "pbrMetallicRoughness": {
        "baseColorFactor": [
          1,
          1,
          1,
          1
        ],
        "baseColorTexture": {
          "index": 0,
          "texCoord": 0
        },
        "metallicFactor": 0,
        "roughnessFactor": 1
      }
    }
  ],
  "meshes": [
    {
      "name": "0",
      "primitives": [
        {
          "attributes": {
            "NORMAL": 1,
            "POSITION": 0,
            "TEXCOORD_0": 2
          },
          "indices": 7,
          "material": 0,
          "mode": 4,
          "targets": [
            {
              "NORMAL": 4,
              "POSITION": 3
            },
            {
              "NORMAL": 6,
              "POSITION": 5
            }
          ]
        }
      ],
      "weights": [
        0,
        0
      ]
    }
  ],
  "nodes": [
    {
      "children": [
        1
      ],
      "name": "RootNode (gltf orientation matrix)",
      "rotation": [
        -0.70710678118654746,
        -0,
        -0,
        0.70710678118654757
      ]
    },
    {
      "children": [
        2
      ],
      "name": "RootNode (model correction matrix)"
    },
    {
      "children": [
        3
      ],
      "matrix": [
        1,
        0,
        0,
        0,
        0,
        0,
        1,
        0,
        0,
        -1,
        0,
        0,
        0,
        0,
        0,
        1
      ],
      "name": "562a047e15904e1db8aa0c0e2df6e95d.fbx"
    },
    {
      "children": [
        4
      ],
      "name": ""
    },
    {
      "children": [
        5
      ],
      "name": "RootNode"
    },
    {
      "children": [
        6
      ],
      "name": "fire3:Group20972",
      "scale": [
        0.26861435174942017,
        0.26861435174942017,
        0.26861435174942017
      ],
      "translation": [
        2.8136708736419678,
        0.39029619097709656,
        1.7029702663421631
      ]
    },
    {
      "mesh": 0,
      "name": "0"
    }
  ],
  "samplers": [
    {
      "magFilter": 9729,
      "minFilter": 9987,
      "wrapS": 10497,
      "wrapT": 10497
    }
  ],
  "scene": 0,
  "scenes": [
    {
      "name": "OSG_Scene",
      "nodes": [
        0
      ]
    }
  ],
  "textures": [
    {
      "sampler": 0,
      "source": 0
    }
  ]
}

