{
  "accessors": [
    {
      "bufferView": 2,
      "componentType": 5126,
      "count": 268,
      "max": [
        4.5999197959899902,
        4.8080301284790039,
        0.32515999674797058
      ],
      "min": [
        -4.5999197959899902,
        -5.1234898567199707,
        -1.9737999439239502
      ],
      "type": "VEC3"
    },
    {
      "bufferView": 2,
      "byteOffset": 3216,
      "componentType": 5126,
      "count": 268,
      "max": [
        0.99923986196517944,
        0.96381253004074097,
        0.99119025468826294
      ],
      "min": [
        -0.98523682355880737,
        -0.98555576801300049,
        -0.99773186445236206
      ],
      "type": "VEC3"
    },
    {
      "bufferView": 3,
      "componentType": 5126,
      "count": 268,
      "max": [
        0.9887624979019165,
        0.99828082323074341,
        0.98625820875167847,
        1
      ],
      "min": [
        -0.98067086935043335,
        -0.98587441444396973,
        -0.9914892315864563,
        -1
      ],
      "type": "VEC4"
    },
    {
      "bufferView": 2,
      "byteOffset": 6432,
      "componentType": 5126,
      "count": 268,
      "max": [
        1,
        1,
        1
      ],
      "min": [
        1,
        1,
        1
      ],
      "type": "VEC3"
    },
    {
      "bufferView": 1,
      "componentType": 5126,
      "count": 268,
      "max": [
        1.1822400093078613,
        2.4814999103546143
      ],
      "min": [
        -0.21626000106334686,
        -1.3753800392150879
      ],
      "type": "VEC2"
    },
    {
      "bufferView": 1,
      "byteOffset": 2144,
      "componentType": 5126,
      "count": 268,
      "max": [
        1.1822400093078613,
        2.4814999103546143
      ],
      "min": [
        -0.21626000106334686,
        -1.3753800392150879
      ],
      "type": "VEC2"
    },
    {
      "bufferView": 0,
      "componentType": 5125,
      "count": 1200,
      "max": [
        267
      ],
      "min": [
        0
      ],
      "type": "SCALAR"
    },
    {
      "bufferView": 2,
      "byteOffset": 9648,
      "componentType": 5126,
      "count": 394,
      "max": [
        4.5999197959899902,
        4.8080301284790039,
        0.5915600061416626
      ],
      "min": [
        -4.5999197959899902,
        -5.1234898567199707,
        -1.9737999439239502
      ],
      "type": "VEC3"
    },
    {
      "bufferView": 2,
      "byteOffset": 14376,
      "componentType": 5126,
      "count": 394,
      "max": [
        0.99923986196517944,
        0.98006033897399902,
        0.99119025468826294
      ],
      "min": [
        -0.98523682355880737,
        -0.98555576801300049,
        -0.98276561498641968
      ],
      "type": "VEC3"
    },
    {
      "bufferView": 3,
      "byteOffset": 4288,
      "componentType": 5126,
      "count": 394,
      "max": [
        0.97916960716247559,
        0.95290124416351318,
        0.99143695831298828,
        1
      ],
      "min": [
        -0.97916960716247559,
        -0.91302269697189331,
        -0.87154948711395264,
        -1
      ],
      "type": "VEC4"
    },
    {
      "bufferView": 2,
      "byteOffset": 19104,
      "componentType": 5126,
      "count": 394,
      "max": [
        1,
        1,
        1
      ],
      "min": [
        1,
        1,
        1
      ],
      "type": "VEC3"
    },
    {
      "bufferView": 0,
      "byteOffset": 4800,
      "componentType": 5125,
      "count": 960,
      "max": [
        393
      ],
      "min": [
        0
      ],
      "type": "SCALAR"
    },
    {
      "bufferView": 2,
      "byteOffset": 23832,
      "componentType": 5126,
      "count": 180,
      "max": [
        0.32469001412391663,
        -1.3937200307846069,
        -0.11529999971389771
      ],
      "min": [
        -0.32469001412391663,
        -1.9001200199127197,
        -0.73518002033233643
      ],
      "type": "VEC3"
    },
    {
      "bufferView": 2,
      "byteOffset": 25992,
      "componentType": 5126,
      "count": 180,
      "max": [
        0.98689424991607666,
        0.74066728353500366,
        0.77258986234664917
      ],
      "min": [
        -0.98689424991607666,
        -0.99867397546768188,
        -0.98059099912643433
      ],
      "type": "VEC3"
    },
    {
      "bufferView": 3,
      "byteOffset": 10592,
      "componentType": 5126,
      "count": 180,
      "max": [
        0.61668479442596436,
        0.70552104711532593,
        -0.16418340802192688,
        1
      ],
      "min": [
        -0.61668479442596436,
        -0.970672607421875,
        -0.9985954761505127,
        -1
      ],
      "type": "VEC4"
    },
    {
      "bufferView": 2,
      "byteOffset": 28152,
      "componentType": 5126,
      "count": 180,
      "max": [
        1,
        1,
        1
      ],
      "min": [
        0.99607998132705688,
        0.99607998132705688,
        0.99607998132705688
      ],
      "type": "VEC3"
    },
    {
      "bufferView": 1,
      "byteOffset": 4288,
      "componentType": 5126,
      "count": 180,
      "max": [
        1,
        1
      ],
      "min": [
        0,
        0
      ],
      "type": "VEC2"
    },
    {
      "bufferView": 0,
      "byteOffset": 8640,
      "componentType": 5125,
      "count": 540,
      "max": [
        179
      ],
      "min": [
        0
      ],
      "type": "SCALAR"
    },
    {
      "bufferView": 2,
      "byteOffset": 30312,
      "componentType": 5126,
      "count": 252,
      "max": [
        0.42386999726295471,
        -1.0600199699401855,
        0.22732999920845032
      ],
      "min": [
        -0.42386999726295471,
        -1.2423800230026245,
        0.14724999666213989
      ],
      "type": "VEC3"
    },
    {
      "bufferView": 2,
      "byteOffset": 33336,
      "componentType": 5126,
      "count": 252,
      "max": [
        0.89980131387710571,
        0.13126306235790253,
        0.99788582324981689
      ],
      "min": [
        -0.89980131387710571,
        -0.98525506258010864,
        -0.75284773111343384
      ],
      "type": "VEC3"
    },
    {
      "bufferView": 3,
      "byteOffset": 13472,
      "componentType": 5126,
      "count": 252,
      "max": [
        1,
        0.73329311609268188,
        0.96953314542770386,
        1
      ],
      "min": [
        -1,
        -1,
        -0.97597968578338623,
        -1
      ],
      "type": "VEC4"
    },
    {
      "bufferView": 2,
      "byteOffset": 36360,
      "componentType": 5126,
      "count": 252,
      "max": [
        1,
        1,
        1
      ],
      "min": [
        1,
        1,
        1
      ],
      "type": "VEC3"
    },
    {
      "bufferView": 1,
      "byteOffset": 5728,
      "componentType": 5126,
      "count": 252,
      "max": [
        1,
        1
      ],
      "min": [
        0,
        0
      ],
      "type": "VEC2"
    },
    {
      "bufferView": 0,
      "byteOffset": 10800,
      "componentType": 5125,
      "count": 768,
      "max": [
        251
      ],
      "min": [
        0
      ],
      "type": "SCALAR"
    },
    {
      "bufferView": 2,
      "byteOffset": 39384,
      "componentType": 5126,
      "count": 953,
      "max": [
        0.94015997648239136,
        4.1159000396728516,
        0.67782998085021973
      ],
      "min": [
        -0.94015997648239136,
        -2.3622100353240967,
        -1.2366900444030762
      ],
      "type": "VEC3"
    },
    {
      "bufferView": 2,
      "byteOffset": 50820,
      "componentType": 5126,
      "count": 953,
      "max": [
        0.99927324056625366,
        0.99942189455032349,
        0.999916672706604
      ],
      "min": [
        -0.99927324056625366,
        -0.99201726913452148,
        -1
      ],
      "type": "VEC3"
    },
    {
      "bufferView": 3,
      "byteOffset": 17504,
      "componentType": 5126,
      "count": 953,
      "max": [
        0.98926377296447754,
        1,
        0.99942183494567871,
        1
      ],
      "min": [
        -0.98926377296447754,
        -0.99999856948852539,
        -0.94789373874664307,
        -1
      ],
      "type": "VEC4"
    },
    {
      "bufferView": 2,
      "byteOffset": 62256,
      "componentType": 5126,
      "count": 953,
      "max": [
        1,
        1,
        1
      ],
      "min": [
        0.99607998132705688,
        0.99607998132705688,
        0.99607998132705688
      ],
      "type": "VEC3"
    },
    {
      "bufferView": 1,
      "byteOffset": 7744,
      "componentType": 5126,
      "count": 953,
      "max": [
        2.0941300392150879,
        1.1840499639511108
      ],
      "min": [
        -1.1750500202178955,
        -0.56594002246856689
      ],
      "type": "VEC2"
    },
    {
      "bufferView": 1,
      "byteOffset": 15368,
      "componentType": 5126,
      "count": 953,
      "max": [
        2.0941300392150879,
        1.1840499639511108
      ],
      "min": [
        -1.1750500202178955,
        -0.56594002246856689
      ],
      "type": "VEC2"
    },
    {
      "bufferView": 0,
      "byteOffset": 13872,
      "componentType": 5125,
      "count": 5208,
      "max": [
        952
      ],
      "min": [
        0
      ],
      "type": "SCALAR"
    }
  ],
  "asset": {
    "extras": {
      "author": "3DHaupt (https://sketchfab.com/dennish2010)",
      "license": "CC-BY-4.0 (http://creativecommons.org/licenses/by/4.0/)",
      "source": "https://sketchfab.com/models/6UY29sfspIR9iqdZG00mPARKPAN",
      "title": "Spider"
    },
    "generator": "Sketchfab-3.28.5",
    "version": "2.0"
  },
  "bufferViews": [
    {
      "buffer": 0,
      "byteLength": 34704,
      "byteOffset": 0,
      "name": "floatBufferViews",
      "target": 34963
    },
    {
      "buffer": 0,
      "byteLength": 22992,
      "byteOffset": 34704,
      "byteStride": 8,
      "name": "floatBufferViews",
      "target": 34962
    },
    {
      "buffer": 0,
      "byteLength": 73692,
      "byteOffset": 57696,
      "byteStride": 12,
      "name": "floatBufferViews",
      "target": 34962
    },
    {
      "buffer": 0,
      "byteLength": 32752,
      "byteOffset": 131388,
      "byteStride": 16,
      "name": "floatBufferViews",
      "target": 34962
    }
  ],
  "buffers": [
    {
      "byteLength": 164140,
      "uri": "scene.bin"
    }
  ],
  "images": [
    {
      "uri": "textures/Material.008_baseColor.jpeg"
    },
    {
      "uri": "textures/Material.008_normal.png"
    },
    {
      "uri": "textures/Material.007_normal.png"
    },
    {
      "uri": "textures/Material.006_normal.png"
    },
    {
      "uri": "textures/Material.008_0_baseColor.jpeg"
    },
    {
      "uri": "textures/Material.008_0_normal.png"
    }
  ],
  "materials": [
    {
      "doubleSided": true,
      "emissiveFactor": [
        0,
        0,
        0
      ],
      "name": "Material.006",
      "normalTexture": {
        "index": 3,
        "scale": 1,
        "texCoord": 0
      },
      "pbrMetallicRoughness": {
        "baseColorFactor": [
          0.41320371630000002,
          0.31126314399999999,
          0.2218050808,
          1
        ],
        "metallicFactor": 0,
        "roughnessFactor": 0.59999999999999998
      }
    },
    {
      "doubleSided": true,
      "emissiveFactor": [
        0,
        0,
        0
      ],
      "name": "Material.007",
      "normalTexture": {
        "index": 2,
        "scale": 1,
        "texCoord": 0
      },
      "pbrMetallicRoughness": {
        "baseColorFactor": [
          0,
          0,
          0,
          1
        ],
        "metallicFactor": 0,
        "roughnessFactor": 0.59999999999999998
      }
    },
    {
      "doubleSided": true,
      "emissiveFactor": [
        0,
        0,
        0
      ],
      "name": "Material.008",
      "normalTexture": {
        "index": 1,
        "scale": 1,
        "texCoord": 1
      },
      "pbrMetallicRoughness": {
        "baseColorFactor": [
          1,
          1,
          1,
          1
        ],
        "baseColorTexture": {
          "index": 0,
          "texCoord": 0
        },
        "metallicFactor": 0,
        "roughnessFactor": 0.59999999999999998
      }
    },
    {
      "doubleSided": true,
      "emissiveFactor": [
        0,
        0,
        0
      ],
      "name": "Material.008_0",
      "normalTexture": {
        "index": 5,
        "scale": 0.40000000600000002,
        "texCoord": 1
      },
      "pbrMetallicRoughness": {
        "baseColorFactor": [
          1,
          1,
          1,
          1
        ],
        "baseColorTexture": {
          "index": 4,
          "texCoord": 0
        },
        "metallicFactor": 0,
        "roughnessFactor": 0.59999999999999998
      }
    },
    {
      "alphaMode": "BLEND",
      "doubleSided": true,
      "emissiveFactor": [
        0,
        0,
        0
      ],
      "name": "Material.009",
      "pbrMetallicRoughness": {
        "baseColorFactor": [
          1,
          1,
          1,
          0
        ],
        "metallicFactor": 0,
        "roughnessFactor": 0.59999999999999998
      }
    }
  ],
  "meshes": [
    {
      "name": "Cube_0",
      "primitives": [
        {
          "attributes": {
            "COLOR_0": 3,
            "NORMAL": 1,
            "POSITION": 0,
            "TANGENT": 2,
            "TEXCOORD_0": 4,
            "TEXCOORD_1": 5
          },
          "indices": 6,
          "material": 3,
          "mode": 4
        }
      ]
    },
    {
      "name": "Cube_1",
      "primitives": [
        {
          "attributes": {
            "COLOR_0": 10,
            "NORMAL": 8,
            "POSITION": 7,
            "TANGENT": 9
          },
          "indices": 11,
          "material": 4,
          "mode": 4
        }
      ]
    },
    {
      "name": "Cube.002_0",
      "primitives": [
        {
          "attributes": {
            "COLOR_0": 15,
            "NORMAL": 13,
            "POSITION": 12,
            "TANGENT": 14,
            "TEXCOORD_0": 16
          },
          "indices": 17,
          "material": 0,
          "mode": 4
        }
      ]
    },
    {
      "name": "Cube.002_1",
      "primitives": [
        {
          "attributes": {
            "COLOR_0": 21,
            "NORMAL": 19,
            "POSITION": 18,
            "TANGENT": 20,
            "TEXCOORD_0": 22
          },
          "indices": 23,
          "material": 1,
          "mode": 4
        }
      ]
    },
    {
      "name": "Cube.002_2",
      "primitives": [
        {
          "attributes": {
            "COLOR_0": 27,
            "NORMAL": 25,
            "POSITION": 24,
            "TANGENT": 26,
            "TEXCOORD_0": 28,
            "TEXCOORD_1": 29
          },
          "indices": 30,
          "material": 2,
          "mode": 4
        }
      ]
    }
  ],
  "nodes": [
    {
      "children": [
        1
      ],
      "name": "RootNode (gltf orientation matrix)",
      "rotation": [
        -0.70710678118654746,
        -0,
        -0,
        0.70710678118654757
      ]
    },
    {
      "children": [
        2
      ],
      "name": "RootNode (model correction matrix)"
    },
    {
      "children": [
        3,
        6
      ],
      "name": "Root"
    },
    {
      "children": [
        4,
        5
      ],
      "matrix": [
        1,
        0,
        0,
        0,
        0,
        1,
        0,
        0,
        0,
        0,
        1,
        0,
        0,
        0.012110000000000001,
        1.7428900000000001,
        1
      ],
      "name": "Cube"
    },
    {
      "mesh": 0,
      "name": "Cube_0"
    },
    {
      "mesh": 1,
      "name": "Cube_1"
    },
    {
      "children": [
        7,
        8,
        9
      ],
      "matrix": [
        1,
        0,
        0,
        0,
        0,
        1,
        0,
        0,
        0,
        0,
        1,
        0,
        0,
        0.012110000000000001,
        1.7428900000000001,
        1
      ],
      "name": "Cube.002"
    },
    {
      "mesh": 2,
      "name": "Cube.002_0"
    },
    {
      "mesh": 3,
      "name": "Cube.002_1"
    },
    {
      "mesh": 4,
      "name": "Cube.002_2"
    }
  ],
  "samplers": [
    {
      "magFilter": 9729,
      "minFilter": 9987,
      "wrapS": 10497,
      "wrapT": 10497
    }
  ],
  "scene": 0,
  "scenes": [
    {
      "name": "OSG_Scene",
      "nodes": [
        0
      ]
    }
  ],
  "textures": [
    {
      "sampler": 0,
      "source": 0
    },
    {
      "sampler": 0,
      "source": 1
    },
    {
      "sampler": 0,
      "source": 2
    },
    {
      "sampler": 0,
      "source": 3
    },
    {
      "sampler": 0,
      "source": 4
    },
    {
      "sampler": 0,
      "source": 5
    }
  ]
}

